<svg width="18" height="19" viewBox="0 0 18 19" fill="none" xmlns="http://www.w3.org/2000/svg">
<path d="M16.9049 5.31506C16.8159 4.95912 16.6344 4.63299 16.3789 4.36962C16.1235 4.10624 15.803 3.91495 15.4499 3.81506C14.1599 3.50006 8.99994 3.50006 8.99994 3.50006C8.99994 3.50006 3.83994 3.50006 2.54994 3.84506C2.19688 3.94495 1.87642 4.13624 1.62095 4.39962C1.36548 4.66299 1.18403 4.98912 1.09494 5.34506C0.858851 6.65423 0.743367 7.98229 0.74994 9.31256C0.741525 10.6528 0.857016 11.991 1.09494 13.3101C1.19316 13.6549 1.37867 13.9687 1.63355 14.2209C1.88843 14.4732 2.20406 14.6554 2.54994 14.7501C3.83994 15.0951 8.99994 15.0951 8.99994 15.0951C8.99994 15.0951 14.1599 15.0951 15.4499 14.7501C15.803 14.6502 16.1235 14.4589 16.3789 14.1955C16.6344 13.9321 16.8159 13.606 16.9049 13.2501C17.1392 11.9508 17.2547 10.6328 17.2499 9.31256C17.2584 7.97228 17.1429 6.63408 16.9049 5.31506V5.31506Z" stroke="#797980" stroke-linecap="round" stroke-linejoin="round"/>
<path d="M7.3125 11.765L11.625 9.31249L7.3125 6.85999V11.765Z" stroke="#797980" stroke-linecap="round" stroke-linejoin="round"/>
</svg>
